# xmcd CD database file
#
# Track frame offsets:
#	150
#	26064
#	38895
#	71026
#	97024
#	113717
#	138389
#	152694
#	184075
#	208387
#
# Disc length: 3018 seconds
#
# Revision: 0
# Processed by: cddbd v1.5.1PL2 Copyright (c) Steve Scherf et al.
# Submitted via: CDex 1.51
#
DISCID=910bc80a
DTITLE=Mary Fettig - Relativity
DYEAR=2004
DGENRE=Jazz
TTITLE0=Danza
TTITLE1=Rhythm Schmythm
TTITLE2=Lonely Dreaming
TTITLE3=Bossaaba
TTITLE4=Give That Dog a Bone
TTITLE5=Sambanique
TTITLE6=Humpty Dumpty
TTITLE7=Summer Rain
TTITLE8=On The Way
TTITLE9=Softly as in a Morning Sunrise
EXTD=YEAR: 2004
EXTT0=
EXTT1=
EXTT2=
EXTT3=
EXTT4=
EXTT5=
EXTT6=
EXTT7=
EXTT8=
EXTT9=
PLAYORDER=
